<?xml version="1.0" encoding="UTF-8"?>
<!DOCTYPE svg PUBLIC "-//W3C//DTD SVG 1.1//EN" "http://www.w3.org/Graphics/SVG/1.1/DTD/svg11.dtd">
<svg xmlns="http://www.w3.org/2000/svg" version="1.1" width="771px" height="195px" style="shape-rendering:geometricPrecision; text-rendering:geometricPrecision; image-rendering:optimizeQuality; fill-rule:evenodd; clip-rule:evenodd" xmlns:xlink="http://www.w3.org/1999/xlink">
<g><path style="opacity:0.973" fill="#221f1f" d="M 77.5,-0.5 C 77.8333,-0.5 78.1667,-0.5 78.5,-0.5C 78.5,45.8333 78.5,92.1667 78.5,138.5C 52.6183,156.934 26.9516,175.601 1.5,194.5C 0.833333,194.5 0.166667,194.5 -0.5,194.5C -0.5,193.5 -0.5,192.5 -0.5,191.5C 26.0125,127.794 52.0125,63.7945 77.5,-0.5 Z"/></g>
<g><path style="opacity:0.972" fill="#92d300" d="M 78.5,-0.5 C 78.8333,-0.5 79.1667,-0.5 79.5,-0.5C 105.559,64.6177 131.893,129.618 158.5,194.5C 157.5,194.5 156.5,194.5 155.5,194.5C 130.048,175.601 104.382,156.934 78.5,138.5C 78.5,92.1667 78.5,45.8333 78.5,-0.5 Z"/></g>
<g><path style="opacity:0.956" fill="#221f1f" d="M 195.5,66.5 C 206.1,65.2829 216.1,67.1163 225.5,72C 233.303,77.4316 237.636,84.9316 238.5,94.5C 231.8,94.83 225.134,94.4967 218.5,93.5C 213.093,83.3108 205.093,80.8108 194.5,86C 187.73,91.7075 184.397,99.0408 184.5,108C 184.789,116.21 187.789,123.21 193.5,129C 201.678,134.032 209.511,133.532 217,127.5C 218.993,125.182 220.159,122.516 220.5,119.5C 215.833,119.5 211.167,119.5 206.5,119.5C 206.5,114.5 206.5,109.5 206.5,104.5C 217.5,104.5 228.5,104.5 239.5,104.5C 239.5,118.833 239.5,133.167 239.5,147.5C 234.821,147.666 230.155,147.499 225.5,147C 224.726,144.595 224.226,142.095 224,139.5C 214.663,149.04 203.496,151.873 190.5,148C 176.283,143.116 167.783,133.283 165,118.5C 161.649,101.721 165.816,87.2207 177.5,75C 182.951,70.7722 188.951,67.9388 195.5,66.5 Z"/></g>
<g><path style="opacity:0.931" fill="#221f1f" d="M 312.5,67.5 C 318.833,67.5 325.167,67.5 331.5,67.5C 331.5,72.8333 331.5,78.1667 331.5,83.5C 325.167,83.5 318.833,83.5 312.5,83.5C 312.5,78.1667 312.5,72.8333 312.5,67.5 Z"/></g>
<g><path style="opacity:0.945" fill="#221f1f" d="M 378.5,67.5 C 384.833,67.5 391.167,67.5 397.5,67.5C 397.5,94.1667 397.5,120.833 397.5,147.5C 391.5,147.5 385.5,147.5 379.5,147.5C 379.662,145.473 379.495,143.473 379,141.5C 373.833,148.179 367,150.679 358.5,149C 349.628,147.134 343.462,141.967 340,133.5C 336.495,123.042 336.829,112.709 341,102.5C 347.886,90.4774 358.052,86.3108 371.5,90C 373.96,91.4578 376.127,93.2911 378,95.5C 378.5,86.1726 378.666,76.8393 378.5,67.5 Z M 364.5,103.5 C 371.231,102.448 375.731,105.114 378,111.5C 378.667,116.167 378.667,120.833 378,125.5C 374.782,133.791 369.282,135.958 361.5,132C 359.683,130.2 358.516,128.034 358,125.5C 357.333,120.833 357.333,116.167 358,111.5C 359.305,108.039 361.471,105.372 364.5,103.5 Z"/></g>
<g><path style="opacity:0.946" fill="#221f1f" d="M 467.5,67.5 C 473.833,67.5 480.167,67.5 486.5,67.5C 486.334,77.1724 486.5,86.8391 487,96.5C 490.92,90.7909 496.42,88.1243 503.5,88.5C 514.512,89.0134 521.012,94.68 523,105.5C 523.5,119.496 523.667,133.496 523.5,147.5C 517.167,147.5 510.833,147.5 504.5,147.5C 504.667,135.162 504.5,122.829 504,110.5C 501.265,104.878 497.099,103.378 491.5,106C 489.106,107.952 487.606,110.452 487,113.5C 486.5,124.828 486.333,136.162 486.5,147.5C 480.167,147.5 473.833,147.5 467.5,147.5C 467.5,120.833 467.5,94.1667 467.5,67.5 Z"/></g>
<g><path style="opacity:0.931" fill="#221f1f" d="M 426.5,88.5 C 450.713,88.0466 462.713,100.047 462.5,124.5C 449.167,124.5 435.833,124.5 422.5,124.5C 424.613,133.892 430.279,137.059 439.5,134C 440.687,132.981 441.687,131.814 442.5,130.5C 448.833,129.167 455.167,129.167 461.5,130.5C 455.324,144.928 444.324,151.095 428.5,149C 415.646,147.145 407.479,139.978 404,127.5C 400.242,107.651 407.742,94.6505 426.5,88.5 Z M 429.5,102.5 C 437.337,101.341 441.67,104.675 442.5,112.5C 435.833,112.5 429.167,112.5 422.5,112.5C 422.893,107.687 425.226,104.353 429.5,102.5 Z"/></g>
<g><path style="opacity:0.94" fill="#221f1f" d="M 553.5,88.5 C 582.097,89.263 593.264,103.596 587,131.5C 577.648,148.247 563.815,153.413 545.5,147C 533.885,141.366 527.885,132.032 527.5,119C 528.546,102.134 537.213,91.9671 553.5,88.5 Z M 555.5,102.5 C 559.422,102.069 562.922,103.069 566,105.5C 572,114.5 572,123.5 566,132.5C 557.073,137.703 551.073,135.37 548,125.5C 546.719,118.457 547.719,111.79 551,105.5C 552.652,104.601 554.152,103.601 555.5,102.5 Z"/></g>
<g><path style="opacity:0.932" fill="#221f1f" d="M 674.5,88.5 C 682.466,87.8673 690.133,89.034 697.5,92C 703.196,95.5538 706.196,100.72 706.5,107.5C 700.5,107.5 694.5,107.5 688.5,107.5C 687.959,103.13 685.459,101.13 681,101.5C 678.7,101.494 676.534,101.994 674.5,103C 673.446,104.388 673.28,105.888 674,107.5C 681.505,109.922 689.172,111.922 697,113.5C 704.297,116.482 708.131,121.982 708.5,130C 707.968,139.735 702.968,145.735 693.5,148C 684.734,150.172 676.067,149.838 667.5,147C 658.833,143.819 654.499,137.652 654.5,128.5C 660.5,128.5 666.5,128.5 672.5,128.5C 672.544,132.09 674.211,134.59 677.5,136C 680.5,136.667 683.5,136.667 686.5,136C 691.983,132.572 691.649,129.572 685.5,127C 677.574,125.883 669.908,123.883 662.5,121C 654.673,113.893 653.506,105.727 659,96.5C 663.361,92.0705 668.528,89.4038 674.5,88.5 Z"/></g>
<g><path style="opacity:0.935" fill="#221f1f" d="M 770.5,111.5 C 770.5,115.833 770.5,120.167 770.5,124.5C 757.5,124.5 744.5,124.5 731.5,124.5C 733.613,133.892 739.279,137.059 748.5,134C 749.687,132.981 750.687,131.814 751.5,130.5C 757.798,129.504 764.132,129.17 770.5,129.5C 770.5,130.167 770.5,130.833 770.5,131.5C 765.208,143.408 755.875,149.408 742.5,149.5C 719.188,146.926 709.355,133.926 713,110.5C 718.613,94.101 730.113,86.9344 747.5,89C 759.681,92.0151 767.347,99.5151 770.5,111.5 Z M 738.5,102.5 C 746.379,101.391 750.712,104.724 751.5,112.5C 744.833,112.5 738.167,112.5 731.5,112.5C 731.893,107.687 734.226,104.353 738.5,102.5 Z"/></g>
<g><path style="opacity:0.959" fill="#221f1f" d="M 247.5,90.5 C 253.833,90.5 260.167,90.5 266.5,90.5C 266.333,102.505 266.5,114.505 267,126.5C 270.624,134.149 275.624,135.149 282,129.5C 282.973,127.608 283.64,125.608 284,123.5C 284.5,112.505 284.667,101.505 284.5,90.5C 290.5,90.5 296.5,90.5 302.5,90.5C 302.5,109.5 302.5,128.5 302.5,147.5C 296.5,147.5 290.5,147.5 284.5,147.5C 284.66,145.801 284.494,144.134 284,142.5C 275.389,150.309 265.889,151.476 255.5,146C 250.819,142.313 248.319,137.48 248,131.5C 247.5,117.837 247.333,104.171 247.5,90.5 Z"/></g>
<g><path style="opacity:0.952" fill="#221f1f" d="M 312.5,90.5 C 318.833,90.5 325.167,90.5 331.5,90.5C 331.5,109.5 331.5,128.5 331.5,147.5C 325.167,147.5 318.833,147.5 312.5,147.5C 312.5,128.5 312.5,109.5 312.5,90.5 Z"/></g>
<g><path style="opacity:0.95" fill="#221f1f" d="M 593.5,90.5 C 599.833,90.5 606.167,90.5 612.5,90.5C 612.333,102.838 612.5,115.171 613,127.5C 618.214,135.255 623.548,135.255 629,127.5C 629.5,115.171 629.667,102.838 629.5,90.5C 635.833,90.5 642.167,90.5 648.5,90.5C 648.5,109.5 648.5,128.5 648.5,147.5C 642.5,147.5 636.5,147.5 630.5,147.5C 630.66,145.801 630.494,144.134 630,142.5C 621.389,150.309 611.889,151.476 601.5,146C 597.051,142.603 594.551,138.103 594,132.5C 593.5,118.504 593.333,104.504 593.5,90.5 Z"/></g>
</svg>
